<?xml version="1.0" encoding="utf-8"?>
<!-- Generator: Adobe Illustrator 13.0.2, SVG Export Plug-In . SVG Version: 6.00 Build 14948)  -->
<svg version="1.2" baseProfile="tiny" id="Ebene_1" xmlns="http://www.w3.org/2000/svg" xmlns:xlink="http://www.w3.org/1999/xlink"
	 x="0px" y="0px" width="42px" height="42px" viewBox="0 0 42 42" xml:space="preserve">
<path d="M16.456,22.5c-0.829,0-1.5,0.671-1.5,1.5s0.671,1.5,1.5,1.5s1.5-0.671,1.5-1.5S17.285,22.5,16.456,22.5"/>
<path d="M25.456,22.5c-0.829,0-1.5,0.671-1.5,1.5s0.671,1.5,1.5,1.5s1.5-0.671,1.5-1.5S26.285,22.5,25.456,22.5"/>
<path d="M37.5,12c-0.553,0-1.077,0.115-1.567,0.299C35.256,5.407,28.834,0,21,0S6.744,5.407,6.066,12.299
	C5.577,12.115,5.053,12,4.5,12C2.025,12,0,14.025,0,16.5V24c0,2.475,2.025,4.5,4.5,4.5c0.601,0,1.174-0.125,1.7-0.34
	c0.243,2.336,0.651,3.854,1.256,4.84c1.158,1.789,8.887,9,13.5,9c4.614,0,12.346-7.217,13.466-8.947
	c0.628-1.023,1.047-2.566,1.293-4.928c0.549,0.238,1.151,0.375,1.785,0.375c2.475,0,4.5-2.025,4.5-4.5v-7.5
	C42,14.025,39.975,12,37.5,12 M31.903,31.424C30.867,33.026,23.927,39,20.956,39s-9.911-5.975-10.942-7.569
	c-0.686-1.117-0.954-4.12-1.05-7.079C8.974,24.235,9,24.122,9,24v-6c0-0.085,0.011-0.167,0.013-0.252
	C9.791,17.908,10.6,18,11.435,18c4.282,0,7.956-2.226,9.565-5.408C22.609,15.774,26.284,18,30.564,18
	c0.836,0,1.645-0.092,2.423-0.252C32.989,17.833,33,17.915,33,18c0,0.166-0.019,0.327-0.025,0.492
	C33.019,21.592,33.111,29.456,31.903,31.424"/>
</svg>
